# xmcd CD database file
#
# Track frame offsets:
#	150
#	19710
#	42150
#	64755
#	94507
#	116005
#	140265
#	164722
#	188357
#	210832
#	229350
#	257455
#	281287
#	301860
#	325542
#
# Disc length: 4540 seconds
#
# Revision: 7
# Processed by: cddbd v1.5PL3 Copyright (c) Steve Scherf et al.
# Submitted via: CDex 1.51
#
DISCID=ba11ba0f
DTITLE=Kenny G - Kenny G Breathless
DYEAR=1992
DGENRE=Smooth Jazz
TTITLE0=The Joy Of Life
TTITLE1=Forever In Love
TTITLE2=In The Rain
TTITLE3=Sentimental
TTITLE4=By The Time  This Nights Is Over
TTITLE5=End Of The Night
TTITLE6=Alone
TTITLE7=Mornig
TTITLE8=Even If My Heart Would Break
TTITLE9=G-bop
TTITLE10=Sister Rose
TTITLE11=A Year Ago
TTITLE12=Homeland
TTITLE13=Natural Ride
TTITLE14=The Wedding Song
EXTD=YEAR: 1992
EXTT0=
EXTT1=
EXTT2=
EXTT3=
EXTT4=with Peabo Bryson
EXTT5=
EXTT6=
EXTT7=
EXTT8=
EXTT9=
EXTT10=
EXTT11=
EXTT12=
EXTT13=
EXTT14=Not on the U.S. album
PLAYORDER=
